<?xml version="1.0" standalone="no"?>
<!DOCTYPE svg PUBLIC "-//W3C//DTD SVG 20010904//EN"
 "http://www.w3.org/TR/2001/REC-SVG-20010904/DTD/svg10.dtd">
<svg version="1.0" xmlns="http://www.w3.org/2000/svg"
 width="200.000000pt" height="200.000000pt" viewBox="0 0 200.000000 200.000000"
 preserveAspectRatio="xMidYMid meet">
<metadata>
Created by potrace 1.14, written by Peter Selinger 2001-2017
</metadata>
<g transform="translate(0.000000,200.000000) scale(0.100000,-0.100000)"
fill="#000000" stroke="none">
<path d="M881 1984 c-119 -32 -224 -106 -289 -204 -64 -95 -85 -172 -85 -310
l0 -118 -37 -11 c-51 -15 -81 -51 -87 -103 -5 -55 25 -108 61 -108 13 0 26 -7
30 -15 3 -8 12 -15 20 -15 12 0 15 -28 19 -152 2 -84 8 -163 12 -176 6 -19 2
-25 -41 -43 -267 -119 -444 -362 -470 -645 l-7 -74 31 0 c29 0 31 2 37 48 34
279 168 480 393 592 33 16 63 30 66 30 3 0 6 -85 6 -190 l0 -190 -50 0 -50 0
0 -145 0 -145 174 0 c169 0 174 1 169 20 -5 20 0 20 216 20 214 0 221 -1 221
-20 0 -19 7 -20 170 -20 l170 0 0 145 0 145 -45 0 -45 0 0 190 0 190 58 -29
c85 -43 177 -116 233 -185 87 -107 159 -281 159 -384 0 -59 8 -72 42 -72 l31
0 -7 74 c-26 283 -212 538 -469 642 -43 17 -48 22 -42 44 16 71 25 154 25 233
0 74 3 90 20 107 11 11 29 20 40 20 49 0 73 109 36 164 -10 16 -36 35 -57 44
l-39 15 0 91 c-1 180 -47 305 -154 411 -122 122 -304 172 -465 129z m184 -54
c197 -32 342 -187 367 -392 16 -128 4 -682 -15 -739 -49 -146 -154 -253 -289
-295 l-38 -12 0 89 c0 82 1 89 20 89 16 0 20 7 20 30 l0 30 -125 0 -125 0 0
-30 c0 -20 5 -30 15 -30 12 0 15 -17 15 -89 l0 -89 -37 10 c-130 36 -245 154
-288 295 -12 38 -15 122 -15 409 0 332 2 367 20 426 53 173 209 293 400 307 8
0 42 -4 75 -9z m-565 -705 l0 -65 -24 11 c-54 25 -39 102 22 118 1 1 2 -28 2
-64z m1040 40 c26 -31 8 -95 -26 -95 -10 0 -14 15 -14 55 0 57 14 71 40 40z
m-510 -690 l0 -95 -30 0 -30 0 0 95 0 95 30 0 30 0 0 -95z m-240 -107 c134
-67 300 -64 443 8 l47 24 0 -115 c0 -96 -3 -115 -15 -115 -8 0 -15 7 -15 15 0
13 -34 15 -250 15 -216 0 -250 -2 -250 -15 0 -8 -7 -15 -15 -15 -12 0 -15 20
-15 116 0 64 3 114 8 112 4 -1 32 -15 62 -30z"/>
<path d="M780 1195 l0 -95 30 0 30 0 0 95 0 95 -30 0 -30 0 0 -95z"/>
<path d="M1150 1195 l0 -95 35 0 35 0 0 95 0 95 -35 0 -35 0 0 -95z"/>
<path d="M910 927 c0 -27 34 -62 69 -70 48 -12 111 32 111 77 0 21 -56 22 -64
1 -3 -8 -15 -15 -26 -15 -11 0 -23 7 -26 15 -4 9 -19 15 -35 15 -24 0 -29 -4
-29 -23z"/>
</g>
</svg>
